# xmcd CD database file
#
# Track frame offsets:
#	150
#	24015
#	48975
#
# Disc length: 967 seconds
#
# Revision: 0
# Processed by: cddbd v1.5.1PL0 Copyright (c) Steve Scherf et al.
# Submitted via: CDex 1.51
#
DISCID=1503c503
DTITLE=アルフィー - アルフィー - もう一度君に逢いたい
DYEAR=1900
DGENRE=J-POP
TTITLE0=もう一度君に逢いたい
TTITLE1=風を追いかけて
TTITLE2=もう一度君に逢いたい（カラオケ）
EXTD=
EXTT0=
EXTT1=
EXTT2=
PLAYORDER=
